<svg xmlns="http://www.w3.org/2000/svg" className="h-5 w-5" viewBox="0 0 20 20" fill="gray">

    <path d="M4.52987+2.20992C2.66121+2.20992+1.12362+3.71629+1.12362+5.58492L1.12362+6.74117L1.12362+15.7724C1.12362+17.0201+2.15726+18.0224+3.40487+18.0224L16.9361+18.0224C17.5599+18.0224+18.0924+17.5213+18.0924+16.8974L18.0924+15.2099C18.7162+15.2099+19.2174+14.6775+19.2174+14.0537L19.2174+10.6787C19.2174+10.0548+18.7162+9.55367+18.0924+9.55367L18.0924+7.86617C18.0924+7.24229+17.5599+6.74117+16.9361+6.74117L4.52987+6.74117C3.90691+6.74117+3.40487+6.20787+3.40487+5.58492C3.40487+4.96196+3.90691+4.45992+4.52987+4.45992L16.9361+4.45992C17.5599+4.45992+18.0924+3.95872+18.0924+3.33492C18.0924+2.71111+17.5599+2.20992+16.9361+2.20992L4.52987+2.20992ZM16.3424+11.5537C16.7327+11.5537+17.0299+11.882+17.0299+12.2724C17.0299+12.6628+16.7327+12.9599+16.3424+12.9599C15.952+12.9599+15.6236+12.6628+15.6236+12.2724C15.6236+11.882+15.952+11.5537+16.3424+11.5537Z" opacity="1" fill="#808080"/>
</svg>